<svg width="70" height="70" viewBox="0 0 70 70" fill="none" xmlns="http://www.w3.org/2000/svg">
<g clip-path="url(#clip0_198_1201)">
<path d="M40.8279 36.8413L40.006 35.4769C39.8334 35.1727 39.6772 34.5974 39.6772 34.2604V32.1809C39.6772 30.2493 38.5429 28.5807 36.9073 27.7999C36.4798 27.0437 35.6908 26.5752 34.7866 26.5752C33.8907 26.5752 33.0852 27.0601 32.6578 27.8246C31.055 28.6218 29.9454 30.2739 29.9454 32.1809V34.2604C29.9454 34.5974 29.7892 35.1727 29.6166 35.4686L28.7865 36.8413C28.4577 37.392 28.3837 38.0002 28.5892 38.5591C28.7865 39.1098 29.255 39.5373 29.8632 39.7427C31.4578 40.2852 33.1345 40.5482 34.8113 40.5482C36.4881 40.5482 38.1648 40.2852 39.7594 39.751C40.3348 39.5619 40.7786 39.1263 40.9923 38.5591C41.206 37.992 41.1485 37.3673 40.8279 36.8413Z" fill="white"/>
<path d="M37.1205 41.3788C36.7753 42.3323 35.863 43.0145 34.7944 43.0145C34.1451 43.0145 33.504 42.7515 33.0519 42.283C32.7889 42.0364 32.5916 41.7076 32.4766 41.3706C32.5834 41.387 32.6903 41.3953 32.8053 41.4117C32.9944 41.4364 33.1917 41.461 33.3889 41.4775C33.8574 41.5186 34.3342 41.5432 34.8109 41.5432C35.2794 41.5432 35.7479 41.5186 36.2082 41.4775C36.3808 41.461 36.5534 41.4528 36.7178 41.4281C36.8493 41.4117 36.9808 41.3953 37.1205 41.3788Z" fill="white"/>
</g>
<rect x="19.7266" y="4.93164" width="4.93166" height="4.93166" rx="2.46583" fill="#EB5757"/>
<defs>
<clipPath id="clip0_198_1201">
<rect width="19.7267" height="19.7267" fill="white" transform="translate(24.9316 24.9316)"/>
</clipPath>
</defs>
</svg>
